<svg width="332" height="332" viewBox="0 0 332 332" fill="none" xmlns="http://www.w3.org/2000/svg">
<g id="marks">
<g id="compass--rotate">
<path id="compass--circle-lines" fill-rule="evenodd" clip-rule="evenodd" d="M253 166C253 165.754 252.999 165.508 252.997 165.262L267.996 165.137C267.998 165.327 267.999 165.516 268 165.706C268 165.804 268 165.902 268 166C268 166.098 268 166.196 268 166.294C267.999 166.484 267.998 166.674 267.996 166.863L252.997 166.738C252.999 166.492 253 166.246 253 166ZM267.93 162.19L252.94 162.742C252.937 162.647 252.933 162.553 252.929 162.459C252.926 162.387 252.923 162.315 252.92 162.243L267.907 161.606C267.911 161.694 267.914 161.781 267.918 161.868C267.92 161.924 267.922 161.98 267.924 162.036C267.926 162.087 267.928 162.139 267.93 162.19ZM267.697 158.093L252.741 159.242C252.729 159.076 252.715 158.91 252.702 158.743L267.651 157.509C267.658 157.592 267.664 157.675 267.671 157.758C267.68 157.869 267.689 157.981 267.697 158.093ZM267.301 154.008L252.403 155.756C252.384 155.589 252.364 155.424 252.343 155.258L267.231 153.425C267.244 153.531 267.257 153.637 267.27 153.744C267.28 153.832 267.291 153.92 267.301 154.008ZM266.741 149.941L251.925 152.286C251.908 152.176 251.89 152.066 251.872 151.956C251.863 151.901 251.854 151.846 251.845 151.791L266.647 149.359C266.679 149.553 266.71 149.747 266.741 149.941ZM266.016 145.894L251.307 148.837C251.275 148.674 251.242 148.511 251.208 148.348L265.899 145.32C265.911 145.375 265.922 145.429 265.933 145.484C265.944 145.538 265.955 145.591 265.966 145.645C265.983 145.728 265.999 145.811 266.016 145.894ZM265.127 141.877L250.55 145.414C250.511 145.252 250.471 145.09 250.431 144.929L264.987 141.308C265.034 141.498 265.081 141.687 265.127 141.877ZM264.076 137.901L249.655 142.026C249.609 141.865 249.563 141.705 249.516 141.545L263.913 137.336C263.968 137.524 264.023 137.712 264.076 137.901ZM262.865 133.97L248.623 138.677C248.571 138.519 248.518 138.361 248.465 138.202L262.679 133.413C262.742 133.598 262.804 133.784 262.865 133.97ZM261.496 130.093L247.457 135.374C247.398 135.218 247.338 135.062 247.279 134.906L261.287 129.543C261.357 129.726 261.427 129.91 261.496 130.093ZM259.971 126.275L246.157 132.121C246.092 131.967 246.026 131.814 245.96 131.66L259.74 125.734C259.763 125.788 259.787 125.842 259.81 125.896C259.835 125.955 259.86 126.013 259.885 126.072L259.971 126.275ZM258.292 122.521L244.726 128.921C244.655 128.771 244.583 128.62 244.511 128.47L258.04 121.991C258.088 122.092 258.136 122.192 258.184 122.293C258.22 122.369 258.256 122.445 258.292 122.521ZM256.463 118.839L243.166 125.783C243.089 125.635 243.012 125.487 242.934 125.34L256.189 118.32C256.281 118.492 256.372 118.665 256.463 118.839ZM254.193 114.727C254.098 114.564 254.002 114.4 253.906 114.237L240.986 121.859C241.235 122.281 241.48 122.704 241.722 123.131L254.769 115.729C254.675 115.564 254.581 115.399 254.487 115.235C254.389 115.066 254.291 114.896 254.193 114.727ZM252.368 111.715L239.675 119.708C239.586 119.567 239.497 119.426 239.407 119.285L252.054 111.22C252.1 111.291 252.146 111.363 252.191 111.435C252.25 111.528 252.309 111.622 252.368 111.715ZM250.111 108.285L237.749 116.781C237.654 116.643 237.559 116.506 237.464 116.369L249.777 107.802C249.888 107.962 250 108.123 250.111 108.285ZM247.717 104.948L235.707 113.934C235.607 113.8 235.506 113.667 235.405 113.534L247.364 104.479C247.482 104.635 247.6 104.791 247.717 104.948ZM245.192 101.71L233.551 111.17C233.446 111.041 233.341 110.912 233.235 110.783L244.821 101.256C244.945 101.407 245.069 101.558 245.192 101.71ZM242.54 98.5768L231.287 108.496C231.177 108.37 231.066 108.246 230.955 108.121L242.151 98.138C242.281 98.2839 242.41 98.4301 242.54 98.5768ZM239.764 95.5525L228.918 105.914C228.803 105.793 228.687 105.673 228.571 105.553L239.358 95.1297C239.494 95.2702 239.629 95.4112 239.764 95.5525ZM236.87 92.6419L226.447 103.429C226.327 103.313 226.207 103.197 226.086 103.082L236.447 92.2356C236.589 92.3707 236.73 92.5061 236.87 92.6419ZM233.862 89.8493L223.879 101.045C223.754 100.934 223.63 100.823 223.504 100.713L233.423 89.4603C233.57 89.5896 233.716 89.7192 233.862 89.8493ZM230.744 87.179L221.217 98.7654C221.088 98.6594 220.959 98.5539 220.83 98.4487L230.29 86.8079C230.442 86.9312 230.593 87.0549 230.744 87.179ZM227.052 84.2827C227.209 84.3999 227.365 84.5175 227.521 84.6356L218.466 96.5946C218.333 96.4938 218.2 96.3934 218.066 96.2934L227.052 84.2827ZM224.198 82.2233L215.631 94.536C215.524 94.4617 215.417 94.3876 215.31 94.3137C215.28 94.2929 215.249 94.272 215.219 94.2511L223.715 81.8894C223.877 82.0002 224.038 82.1115 224.198 82.2233ZM220.78 79.9458L212.715 92.593C212.574 92.5032 212.433 92.4139 212.292 92.3249L220.285 79.6316C220.45 79.7359 220.616 79.8406 220.78 79.9458ZM216.765 77.5131C216.601 77.4187 216.436 77.3248 216.271 77.2313L208.869 90.2777C209.01 90.3575 209.15 90.4376 209.29 90.518C209.435 90.6012 209.579 90.6848 209.723 90.7687C209.863 90.85 210.002 90.9316 210.141 91.0136L217.763 78.0942C217.6 77.998 217.436 77.9023 217.273 77.807C217.104 77.7086 216.934 77.6106 216.765 77.5131ZM213.681 75.8106L206.66 89.0664C206.513 88.9883 206.365 88.9107 206.217 88.8335L213.161 75.5375C213.335 75.6281 213.508 75.7191 213.681 75.8106ZM210.009 73.9601L203.53 87.4889C203.38 87.4169 203.229 87.3454 203.079 87.2742L209.479 73.7084C209.656 73.7918 209.833 73.8757 210.009 73.9601ZM206.266 72.2599L200.34 86.0398C200.186 85.9738 200.033 85.9082 199.879 85.843L205.725 72.029C205.905 72.1055 206.086 72.1824 206.266 72.2599ZM202.457 70.7126L197.094 84.7213C196.938 84.6616 196.782 84.6023 196.626 84.5435L201.907 70.5039C202.09 70.573 202.274 70.6425 202.457 70.7126ZM198.587 69.3207L193.798 83.5354C193.639 83.4821 193.481 83.4293 193.323 83.3769L198.03 69.1346C198.216 69.1961 198.402 69.2582 198.587 69.3207ZM194.664 68.0867L190.455 82.4841C190.295 82.4373 190.135 82.391 189.974 82.3451L194.1 67.9236C194.288 67.9774 194.476 68.0318 194.664 68.0867ZM190.692 67.0127L187.071 81.5691C186.91 81.5289 186.748 81.4892 186.586 81.4499L190.123 66.8728C190.313 66.9189 190.503 66.9655 190.692 67.0127ZM186.68 66.1007L183.652 80.7919C183.489 80.7583 183.326 80.7252 183.163 80.6925L186.106 65.984C186.297 66.0224 186.489 66.0613 186.68 66.1007ZM182.641 65.353L180.209 80.1546C180.044 80.1275 179.879 80.1009 179.714 80.0747L182.059 65.2593C182.253 65.29 182.447 65.3212 182.641 65.353ZM178.575 64.7691L176.742 79.6566C176.576 79.6362 176.411 79.6163 176.245 79.5968L177.992 64.699C178.187 64.7218 178.381 64.7452 178.575 64.7691ZM174.491 64.3492L173.257 79.2983C173.09 79.2846 172.924 79.2714 172.758 79.2586L173.907 64.3027C174.102 64.3176 174.296 64.3331 174.491 64.3492ZM170.394 64.0932L169.757 79.0797C169.591 79.0726 169.425 79.066 169.259 79.0599L169.81 64.0701C170.005 64.0772 170.2 64.0849 170.394 64.0932ZM166.294 64.0004C166.196 64.0001 166.098 64 166 64C165.902 64 165.804 64.0001 165.706 64.0004C165.516 64.001 165.327 64.002 165.137 64.0036L165.262 79.0031C165.424 79.0017 165.586 79.0008 165.748 79.0004C165.832 79.0001 165.916 79 166 79C166.084 79 166.168 79.0001 166.252 79.0004C166.414 79.0008 166.576 79.0017 166.738 79.0031L166.863 64.0036C166.674 64.002 166.484 64.001 166.294 64.0004ZM162.19 64.0701L162.742 79.0599C162.575 79.066 162.409 79.0726 162.243 79.0797L161.606 64.0932C161.8 64.0849 161.995 64.0772 162.19 64.0701ZM158.093 64.3027L159.242 79.2586C159.076 79.2714 158.91 79.2846 158.743 79.2983L157.509 64.3492C157.704 64.3331 157.898 64.3176 158.093 64.3027ZM154.008 64.6989L155.756 79.5968C155.589 79.6163 155.424 79.6362 155.258 79.6566L153.425 64.7691C153.619 64.7452 153.813 64.7218 154.008 64.6989ZM149.941 65.2592L152.286 80.0747C152.121 80.1008 151.956 80.1275 151.791 80.1546L149.359 65.353C149.553 65.3212 149.747 65.2899 149.941 65.2592ZM145.894 65.984L148.837 80.6925C148.674 80.7252 148.511 80.7583 148.348 80.7919L145.32 66.1007C145.511 66.0613 145.703 66.0224 145.894 65.984ZM141.877 66.8728L145.414 81.4499C145.252 81.4891 145.09 81.5289 144.929 81.5691L141.308 67.0127C141.498 66.9655 141.687 66.9189 141.877 66.8728ZM137.901 67.9235L142.026 82.3451C141.865 82.391 141.705 82.4373 141.545 82.4841L137.336 68.0867C137.524 68.0318 137.712 67.9774 137.901 67.9235ZM133.97 69.1346L138.677 83.3769C138.519 83.4293 138.361 83.4821 138.202 83.5354L133.413 69.3207C133.598 69.2582 133.784 69.1961 133.97 69.1346ZM130.093 70.5039L135.374 84.5435C135.218 84.6023 135.062 84.6616 134.906 84.7213L129.543 70.7126C129.726 70.6425 129.91 70.5729 130.093 70.5039ZM126.275 72.029L132.121 85.843C131.967 85.9081 131.814 85.9737 131.66 86.0398L125.734 72.2599C125.914 72.1824 126.095 72.1054 126.275 72.029ZM122.521 73.7083L128.921 87.2742C128.771 87.3453 128.62 87.4169 128.47 87.4888L121.991 73.9601C122.167 73.8757 122.344 73.7918 122.521 73.7083ZM118.839 75.5375L125.783 88.8335C125.635 88.9107 125.487 88.9883 125.34 89.0664L118.32 75.8106C118.492 75.7191 118.665 75.628 118.839 75.5375ZM122.71 90.518C122.565 90.6012 122.421 90.6847 122.277 90.7687C122.137 90.85 121.998 90.9316 121.859 91.0136L114.237 78.0942C114.4 77.998 114.564 77.9023 114.727 77.807C114.896 77.7085 115.066 77.6106 115.235 77.513C115.399 77.4187 115.564 77.3248 115.729 77.2313L123.131 90.2777C122.99 90.3574 122.85 90.4375 122.71 90.518ZM111.715 79.6316L119.708 92.3249C119.567 92.4139 119.426 92.5032 119.285 92.593L111.22 79.9458C111.384 79.8406 111.55 79.7358 111.715 79.6316ZM108.285 81.8894L116.781 94.2511C116.643 94.3457 116.506 94.4407 116.369 94.536L107.802 82.2233C107.962 82.1115 108.123 82.0002 108.285 81.8894ZM104.948 84.2827L113.934 96.2934C113.8 96.3934 113.667 96.4938 113.534 96.5946L104.479 84.6356C104.635 84.5175 104.791 84.3999 104.948 84.2827ZM101.71 86.8079L111.17 98.4486C111.041 98.5539 110.912 98.6594 110.783 98.7654L101.256 87.179C101.407 87.0549 101.558 86.9312 101.71 86.8079ZM98.5768 89.4603L108.496 100.713C108.37 100.823 108.246 100.934 108.121 101.045L98.138 89.8493C98.2839 89.7192 98.4301 89.5895 98.5768 89.4603ZM95.5525 92.2356L105.914 103.082C105.793 103.197 105.673 103.313 105.553 103.429L95.1297 92.6419C95.2702 92.5061 95.4112 92.3706 95.5525 92.2356ZM92.6419 95.1296L103.429 105.553C103.313 105.673 103.197 105.793 103.082 105.914L92.2356 95.5525C92.3707 95.4112 92.5061 95.2702 92.6419 95.1296ZM89.8493 98.138L101.045 108.121C100.934 108.245 100.823 108.37 100.713 108.496L89.4603 98.5768C89.5896 98.4301 89.7192 98.2839 89.8493 98.138ZM87.179 101.256L98.7654 110.783C98.6594 110.912 98.5539 111.041 98.4487 111.17L86.8079 101.71C86.9312 101.558 87.0549 101.407 87.179 101.256ZM84.6356 104.479L96.5946 113.534C96.4938 113.667 96.3934 113.8 96.2934 113.934L84.2827 104.948C84.3999 104.791 84.5175 104.635 84.6356 104.479ZM82.2233 107.802L94.536 116.369C94.4407 116.506 94.3457 116.643 94.2511 116.781L81.8894 108.285C82.0002 108.123 82.1115 107.962 82.2233 107.802ZM79.9458 111.219L92.593 119.285C92.5032 119.425 92.4139 119.566 92.3249 119.708L79.6316 111.715C79.7359 111.55 79.8406 111.384 79.9458 111.219ZM90.7687 122.277C90.6848 122.421 90.6012 122.565 90.518 122.71C90.4376 122.85 90.3575 122.99 90.2777 123.131L77.2313 115.729C77.3248 115.564 77.4187 115.399 77.5131 115.235C77.6106 115.066 77.7086 114.896 77.807 114.727C77.9023 114.564 77.998 114.4 78.0942 114.237L91.0136 121.859C90.9316 121.998 90.85 122.137 90.7687 122.277ZM75.8106 118.319L89.0664 125.34C88.9883 125.487 88.9107 125.635 88.8335 125.783L75.5375 118.839C75.6281 118.665 75.7191 118.492 75.8106 118.319ZM73.9601 121.991L87.4889 128.47C87.4169 128.62 87.3454 128.771 87.2742 128.921L73.7084 122.521C73.7918 122.344 73.8757 122.167 73.9601 121.991ZM72.2599 125.734L86.0398 131.66C85.9738 131.813 85.9082 131.967 85.843 132.121L72.029 126.275C72.1055 126.095 72.1824 125.914 72.2599 125.734ZM70.7126 129.543L84.7213 134.906C84.6616 135.062 84.6023 135.218 84.5435 135.374L70.5039 130.093C70.573 129.91 70.6425 129.726 70.7126 129.543ZM69.3207 133.413L83.5354 138.202C83.4821 138.36 83.4293 138.519 83.3769 138.677L69.1346 133.97C69.1961 133.784 69.2582 133.598 69.3207 133.413ZM68.0867 137.336L82.4841 141.545C82.4373 141.705 82.391 141.865 82.3451 142.026L67.9236 137.9C67.9774 137.712 68.0318 137.524 68.0867 137.336ZM67.0127 141.308L81.5691 144.929C81.5289 145.09 81.4892 145.252 81.4499 145.414L66.8728 141.877C66.9189 141.687 66.9655 141.497 67.0127 141.308ZM66.1007 145.32L80.7919 148.348C80.7583 148.511 80.7252 148.674 80.6925 148.837L65.984 145.894C66.0224 145.703 66.0613 145.511 66.1007 145.32ZM65.353 149.359L80.1546 151.791C80.1275 151.956 80.1009 152.121 80.0747 152.286L65.2593 149.941C65.29 149.747 65.3212 149.553 65.353 149.359ZM64.7691 153.425L79.6566 155.258C79.6362 155.424 79.6163 155.589 79.5968 155.755L64.699 154.008C64.7218 153.813 64.7452 153.619 64.7691 153.425ZM64.3492 157.509L79.2983 158.743C79.2846 158.91 79.2714 159.076 79.2586 159.242L64.3027 158.093C64.3176 157.898 64.3331 157.704 64.3492 157.509ZM64.0932 161.606L79.0797 162.243C79.0726 162.409 79.066 162.575 79.0599 162.741L64.0701 162.19C64.0772 161.995 64.0849 161.8 64.0932 161.606ZM79.0004 166.252C79.0008 166.414 79.0017 166.576 79.0031 166.738L64.0036 166.863C64.002 166.673 64.001 166.484 64.0004 166.294C64.0001 166.196 64 166.098 64 166C64 165.902 64.0001 165.804 64.0004 165.706C64.001 165.516 64.002 165.326 64.0036 165.137L79.0031 165.262C79.0017 165.424 79.0008 165.586 79.0004 165.748C79.0003 165.773 79.0002 165.797 79.0002 165.821C79.0001 165.843 79.0001 165.865 79.0001 165.887C79 165.925 79 165.962 79 166C79 166.084 79.0001 166.168 79.0004 166.252ZM64.0701 169.81L79.0599 169.258C79.066 169.425 79.0726 169.591 79.0797 169.757L64.0932 170.394C64.0849 170.2 64.0772 170.005 64.0701 169.81ZM64.3027 173.907L79.2586 172.758C79.2714 172.924 79.2846 173.09 79.2983 173.257L64.3492 174.491C64.3331 174.296 64.3176 174.102 64.3027 173.907ZM64.6989 177.992L79.5968 176.244C79.6163 176.411 79.6362 176.576 79.6566 176.742L64.7691 178.575C64.7452 178.381 64.7218 178.187 64.6989 177.992ZM65.2592 182.059L80.0747 179.714C80.1008 179.879 80.1275 180.044 80.1546 180.209L65.353 182.641C65.3212 182.447 65.2899 182.253 65.2592 182.059ZM65.984 186.106L80.6925 183.163C80.7252 183.326 80.7583 183.489 80.7919 183.652L66.1007 186.68C66.0613 186.489 66.0224 186.297 65.984 186.106ZM66.8728 190.123L81.4499 186.586C81.4891 186.748 81.5289 186.91 81.5691 187.071L67.0127 190.692C66.9655 190.502 66.9189 190.313 66.8728 190.123ZM67.9235 194.099L82.3451 189.974C82.391 190.135 82.4373 190.295 82.4841 190.455L68.0867 194.664C68.0318 194.476 67.9774 194.288 67.9235 194.099ZM69.1346 198.03L83.3769 193.323C83.4293 193.481 83.4821 193.639 83.5354 193.798L69.3207 198.587C69.2582 198.402 69.1961 198.216 69.1346 198.03ZM70.5039 201.907L84.5435 196.626C84.6023 196.782 84.6616 196.938 84.7213 197.094L70.7126 202.457C70.6425 202.274 70.5729 202.09 70.5039 201.907ZM72.029 205.724L85.843 199.879C85.9081 200.033 85.9737 200.186 86.0398 200.34L72.2599 206.266C72.1824 206.086 72.1054 205.905 72.029 205.724ZM73.7083 209.479L87.2742 203.079C87.3454 203.229 87.4169 203.38 87.4889 203.53L73.9601 210.009C73.8757 209.833 73.7918 209.656 73.7083 209.479ZM75.5375 213.161L88.8335 206.217C88.9107 206.365 88.9883 206.513 89.0664 206.66L75.8106 213.68C75.7191 213.508 75.628 213.335 75.5375 213.161ZM90.7294 209.656C90.6587 209.534 90.5882 209.412 90.518 209.29C90.4375 209.15 90.3574 209.01 90.2777 208.869L77.2313 216.271C77.3248 216.436 77.4187 216.601 77.513 216.765C77.6106 216.934 77.7085 217.104 77.807 217.273C77.9023 217.436 77.998 217.6 78.0942 217.763L91.0136 210.141C90.9316 210.002 90.85 209.863 90.7687 209.723C90.7556 209.701 90.7425 209.678 90.7294 209.656ZM79.6316 220.285L92.3249 212.292C92.4139 212.433 92.5032 212.574 92.593 212.715L79.9458 220.78C79.8406 220.616 79.7358 220.45 79.6316 220.285ZM81.8894 223.715L94.2511 215.219C94.3457 215.357 94.4407 215.494 94.536 215.631L82.2233 224.198C82.1115 224.038 82.0002 223.877 81.8894 223.715ZM84.2827 227.052L96.2934 218.066C96.3934 218.2 96.4938 218.333 96.5946 218.466L84.6356 227.521C84.5175 227.365 84.3999 227.209 84.2827 227.052ZM86.8079 230.29L98.4486 220.83C98.5539 220.959 98.6594 221.088 98.7654 221.217L87.179 230.744C87.0549 230.593 86.9312 230.442 86.8079 230.29ZM89.4603 233.423L100.713 223.504C100.823 223.63 100.934 223.754 101.045 223.879L89.8493 233.862C89.7192 233.716 89.5895 233.57 89.4603 233.423ZM92.2356 236.447L103.082 226.086C103.197 226.207 103.313 226.327 103.429 226.447L92.6419 236.87C92.5061 236.73 92.3706 236.589 92.2356 236.447ZM95.1296 239.358L105.553 228.571C105.673 228.687 105.793 228.803 105.914 228.918L95.5525 239.764C95.4112 239.629 95.2702 239.494 95.1296 239.358ZM98.138 242.151L108.121 230.955C108.245 231.066 108.37 231.177 108.496 231.287L98.5768 242.54C98.4301 242.41 98.2839 242.281 98.138 242.151ZM101.256 244.821L110.783 233.235C110.912 233.341 111.041 233.446 111.17 233.551L101.71 245.192C101.558 245.069 101.407 244.945 101.256 244.821ZM104.479 247.364L113.534 235.405C113.667 235.506 113.8 235.607 113.934 235.707L104.948 247.717C104.791 247.6 104.635 247.482 104.479 247.364ZM107.802 249.777L116.369 237.464C116.506 237.559 116.643 237.654 116.781 237.749L108.285 250.111C108.123 250 107.962 249.888 107.802 249.777ZM111.219 252.054L119.285 239.407C119.425 239.497 119.566 239.586 119.708 239.675L111.715 252.368C111.55 252.264 111.384 252.159 111.219 252.054ZM122.277 241.231C122.137 241.15 121.998 241.068 121.859 240.986L114.237 253.906C114.569 254.101 114.901 254.295 115.235 254.487C115.399 254.581 115.564 254.675 115.729 254.769L123.131 241.722C122.99 241.643 122.85 241.562 122.71 241.482C122.565 241.399 122.421 241.315 122.277 241.231ZM118.319 256.189L125.34 242.934C125.487 243.012 125.635 243.089 125.783 243.166L118.839 256.462C118.665 256.372 118.492 256.281 118.319 256.189ZM121.991 258.04L128.47 244.511C128.62 244.583 128.771 244.655 128.921 244.726L122.521 258.292C122.344 258.208 122.167 258.124 121.991 258.04ZM125.734 259.74L131.66 245.96C131.813 246.026 131.967 246.092 132.121 246.157L126.275 259.971C126.169 259.926 126.062 259.88 125.955 259.835L125.734 259.74ZM130.093 261.496C129.91 261.427 129.726 261.357 129.543 261.287L134.906 247.279C135.062 247.338 135.218 247.398 135.374 247.457L130.093 261.496ZM133.413 262.679L138.202 248.465C138.36 248.518 138.519 248.571 138.677 248.623L133.97 262.865C133.884 262.837 133.798 262.808 133.713 262.78C133.613 262.746 133.513 262.713 133.413 262.679ZM137.336 263.913L141.545 249.516C141.705 249.563 141.865 249.609 142.026 249.655L137.9 264.076C137.712 264.023 137.524 263.968 137.336 263.913ZM141.308 264.987L144.929 250.431C145.09 250.471 145.252 250.511 145.414 250.55L141.877 265.127C141.687 265.081 141.497 265.034 141.308 264.987ZM145.32 265.899L148.348 251.208C148.511 251.242 148.674 251.275 148.837 251.307L145.894 266.016C145.703 265.978 145.511 265.939 145.32 265.899ZM149.359 266.647L151.791 251.845C151.901 251.864 152.012 251.881 152.122 251.899C152.177 251.908 152.232 251.917 152.286 251.925L149.941 266.741C149.747 266.71 149.553 266.679 149.359 266.647ZM153.425 267.231L155.258 252.343C155.424 252.364 155.589 252.384 155.755 252.403L154.008 267.301C153.813 267.278 153.619 267.255 153.425 267.231ZM157.509 267.651L158.743 252.702C158.91 252.715 159.076 252.729 159.242 252.741L158.093 267.697C157.898 267.682 157.704 267.667 157.509 267.651ZM161.606 267.907L162.243 252.92C162.399 252.927 162.554 252.933 162.71 252.939L162.741 252.94L162.19 267.93C161.995 267.923 161.8 267.915 161.606 267.907ZM166.5 253C166.78 253 165.479 252.999 165.262 252.997L165.137 267.996C165.326 267.998 165.516 267.999 165.706 268C165.709 268 165.712 268 165.715 268C165.736 268 165.757 268 165.778 268L165.8 268L166.7 268M169.81 267.93L169.258 252.94C169.425 252.934 169.591 252.927 169.757 252.92L170.394 267.907C170.2 267.915 170.005 267.923 169.81 267.93ZM173.907 267.697L172.758 252.741C172.877 252.732 172.997 252.723 173.117 252.713C173.163 252.709 173.21 252.706 173.257 252.702L174.491 267.651C174.296 267.667 174.102 267.682 173.907 267.697ZM177.992 267.301L176.244 252.403C176.411 252.384 176.576 252.364 176.742 252.343L178.575 267.231C178.48 267.243 178.384 267.254 178.289 267.266C178.19 267.278 178.091 267.289 177.992 267.301ZM182.059 266.741L179.714 251.925C179.879 251.899 180.044 251.873 180.209 251.845L182.641 266.647C182.447 266.679 182.253 266.71 182.059 266.741ZM186.106 266.016L183.163 251.307C183.232 251.294 183.302 251.279 183.372 251.265C183.466 251.246 183.559 251.227 183.652 251.208L186.68 265.899C186.588 265.918 186.495 265.937 186.403 265.956C186.304 265.976 186.205 265.996 186.106 266.016ZM190.123 265.127L186.586 250.55C186.683 250.527 186.78 250.503 186.876 250.479C186.941 250.463 187.006 250.447 187.071 250.431L190.692 264.987C190.502 265.034 190.313 265.081 190.123 265.127ZM194.099 264.076L189.974 249.655C190.135 249.609 190.295 249.563 190.455 249.516L194.664 263.913C194.476 263.968 194.288 264.023 194.099 264.076ZM198.03 262.865L193.323 248.623C193.481 248.571 193.639 248.518 193.798 248.465L198.587 262.679C198.402 262.742 198.216 262.804 198.03 262.865ZM202.141 261.408C202.063 261.437 201.985 261.467 201.907 261.496L196.626 247.457C196.782 247.398 196.938 247.338 197.094 247.279L202.457 261.287C202.352 261.328 202.246 261.368 202.141 261.408ZM205.724 259.971L199.879 246.157C199.955 246.125 200.031 246.092 200.108 246.06C200.185 246.027 200.263 245.994 200.34 245.96L206.266 259.74C206.086 259.818 205.905 259.895 205.724 259.971ZM209.479 258.292L203.079 244.726C203.229 244.655 203.38 244.583 203.53 244.511L210.009 258.04C209.833 258.124 209.656 258.208 209.479 258.292ZM213.161 256.463L206.217 243.166C206.3 243.123 206.383 243.08 206.465 243.037C206.53 243.002 206.595 242.968 206.66 242.934L213.68 256.189C213.508 256.281 213.335 256.372 213.161 256.463ZM217.273 254.193C217.436 254.098 217.6 254.002 217.763 253.906L210.141 240.986C210.002 241.068 209.863 241.15 209.723 241.231C209.579 241.315 209.435 241.399 209.29 241.482C209.15 241.562 209.01 241.643 208.869 241.722L216.271 254.769C216.436 254.675 216.601 254.581 216.765 254.487C216.934 254.389 217.104 254.291 217.273 254.193ZM220.285 252.368L212.292 239.675C212.433 239.586 212.574 239.497 212.715 239.407L220.78 252.054C220.616 252.159 220.45 252.264 220.285 252.368ZM223.715 250.111L215.219 237.749C215.357 237.654 215.494 237.559 215.631 237.464L224.198 249.777C224.038 249.888 223.877 250 223.715 250.111ZM227.052 247.717L218.066 235.707C218.2 235.607 218.333 235.506 218.466 235.405L227.521 247.364C227.365 247.482 227.209 247.6 227.052 247.717ZM230.29 245.192L220.83 233.551C220.959 233.446 221.088 233.341 221.217 233.235L230.744 244.821C230.593 244.945 230.442 245.069 230.29 245.192ZM233.423 242.54L223.504 231.287C223.63 231.177 223.754 231.066 223.879 230.955L233.862 242.151C233.716 242.281 233.57 242.41 233.423 242.54ZM236.447 239.764L226.086 228.918C226.207 228.803 226.327 228.687 226.447 228.571L236.87 239.358C236.73 239.494 236.589 239.629 236.447 239.764ZM239.358 236.87L228.571 226.447C228.687 226.327 228.803 226.207 228.918 226.086L239.764 236.447C239.629 236.589 239.494 236.73 239.358 236.87ZM242.151 233.862L230.955 223.879C231.066 223.754 231.177 223.63 231.287 223.504L242.54 233.423C242.41 233.57 242.281 233.716 242.151 233.862ZM244.821 230.744L233.235 221.217C233.295 221.144 233.356 221.07 233.416 220.996C233.461 220.94 233.506 220.885 233.551 220.83L245.192 230.29C245.069 230.442 244.945 230.593 244.821 230.744ZM247.541 227.288C247.482 227.365 247.423 227.443 247.364 227.521L235.405 218.466C235.506 218.333 235.607 218.2 235.707 218.066L247.717 227.052C247.659 227.131 247.6 227.209 247.541 227.288ZM249.777 224.198L237.464 215.631C237.559 215.494 237.654 215.357 237.749 215.219L250.111 223.715C250 223.877 249.888 224.038 249.777 224.198ZM252.054 220.78L239.407 212.715C239.497 212.574 239.586 212.433 239.675 212.292L252.368 220.285C252.312 220.375 252.255 220.465 252.198 220.555C252.15 220.63 252.102 220.705 252.054 220.78ZM254.487 216.765C254.581 216.601 254.675 216.436 254.769 216.271L241.722 208.869C241.643 209.01 241.562 209.15 241.482 209.29C241.399 209.435 241.315 209.579 241.231 209.723C241.15 209.863 241.068 210.002 240.986 210.141L253.906 217.763C254.002 217.6 254.098 217.436 254.193 217.273C254.291 217.104 254.389 216.934 254.487 216.765ZM256.189 213.681L242.934 206.66C243.012 206.513 243.089 206.365 243.166 206.217L256.462 213.161C256.372 213.335 256.281 213.508 256.189 213.681ZM258.04 210.009L244.511 203.53C244.583 203.38 244.655 203.229 244.726 203.079L258.292 209.479C258.208 209.656 258.124 209.833 258.04 210.009ZM259.74 206.266L245.96 200.34C246.026 200.186 246.092 200.033 246.157 199.879L259.971 205.725C259.895 205.905 259.818 206.086 259.74 206.266ZM261.287 202.457L247.279 197.094C247.338 196.938 247.398 196.782 247.457 196.626L261.496 201.907C261.427 202.09 261.357 202.274 261.287 202.457ZM262.679 198.587L248.465 193.798C248.518 193.639 248.571 193.481 248.623 193.323L262.865 198.03C262.804 198.216 262.742 198.402 262.679 198.587ZM263.913 194.664L249.516 190.455C249.563 190.295 249.609 190.135 249.655 189.974L264.076 194.1C264.023 194.288 263.968 194.476 263.913 194.664ZM264.987 190.692L250.431 187.071C250.471 186.91 250.511 186.748 250.55 186.586L265.127 190.123C265.081 190.313 265.034 190.503 264.987 190.692ZM265.899 186.68L251.208 183.652C251.242 183.489 251.275 183.326 251.307 183.163L266.016 186.106C265.978 186.297 265.939 186.489 265.899 186.68ZM266.647 182.641L251.845 180.209C251.872 180.044 251.899 179.879 251.925 179.714L266.741 182.059C266.71 182.253 266.679 182.447 266.647 182.641ZM267.231 178.575L252.343 176.742C252.364 176.576 252.384 176.411 252.403 176.245L267.301 177.992C267.278 178.187 267.255 178.381 267.231 178.575ZM267.651 174.491L252.702 173.257C252.715 173.09 252.729 172.924 252.741 172.758L267.697 173.907C267.682 174.102 267.667 174.296 267.651 174.491ZM267.907 170.394L252.92 169.757C252.927 169.591 252.934 169.425 252.94 169.259L267.93 169.81C267.923 170.005 267.915 170.2 267.907 170.394Z" fill="white"/>
<path id="arrow" d="M62.2887 142.379L61.2469 148.288L55.859 144.291L62.2887 142.379Z" fill="#FF453A"/>
<g id="compass--rotate-reverse">
<path id="compass--N" d="M161.609 99L162.664 99L162.664 89.6328L162.766 89.6328L169.359 99L170.391 99L170.391 87.7266L169.336 87.7266L169.336 97.0859L169.234 97.0859L162.664 87.7266L161.609 87.7266L161.609 99Z" fill="white"/>
<path id="compass--S" d="M166.055 245.234C168.484 245.234 170.109 243.914 170.109 241.922L170.109 241.914C170.109 240.344 169.164 239.398 166.82 238.867L165.664 238.602C163.953 238.211 163.258 237.578 163.258 236.586L163.258 236.578C163.258 235.32 164.438 234.484 165.992 234.484C167.594 234.477 168.656 235.312 168.82 236.398L168.828 236.492L169.898 236.492L169.891 236.391C169.758 234.773 168.227 233.492 166.023 233.492C163.773 233.492 162.172 234.812 162.172 236.602L162.172 236.609C162.172 238.164 163.125 239.125 165.391 239.641L166.547 239.898C168.281 240.289 169.023 241 169.023 242.039L169.023 242.055C169.023 243.32 167.805 244.242 166.109 244.242C164.375 244.242 163.078 243.391 162.961 242.148L162.953 242.062L161.883 242.062L161.891 242.148C162.055 243.953 163.672 245.234 166.055 245.234Z" fill="white"/>
<path id="compass--W" d="M89.2031 172L90.1953 172L92.9609 162.586L93.0391 162.586L95.8047 172L96.7969 172L99.8984 160.727L98.7891 160.727L96.3125 170.336L96.2422 170.336L93.5313 160.727L92.4688 160.727L89.7578 170.336L89.6875 170.336L87.2109 160.727L86.1016 160.727L89.2031 172Z" fill="white"/>
<path id="compass--E" d="M235.766 172L242.578 172L242.578 171.031L236.836 171.031L236.836 166.703L242.289 166.703L242.289 165.75L236.836 165.75L236.836 161.695L242.578 161.695L242.578 160.727L235.766 160.727L235.766 172Z" fill="white"/>
<g id="compass--info">
<path id="compass--degrees" d="M4.9043 153.43L10.7754 153.43L10.7754 152.176L6.94922 152.176L6.94922 152.053L8.64258 150.412C10.1836 148.93 10.6465 148.168 10.6465 147.207L10.6465 147.189C10.6465 145.766 9.46289 144.764 7.81641 144.764C6.05273 144.764 4.82227 145.865 4.82227 147.441L4.82813 147.459L6.23438 147.465L6.24023 147.441C6.24023 146.568 6.84375 145.977 7.74023 145.977C8.61914 145.977 9.15234 146.539 9.15234 147.318L9.15234 147.336C9.15234 147.986 8.83008 148.414 7.68164 149.574L4.9043 152.41L4.9043 153.43ZM12.8203 153.43L14.4023 153.43L18.0176 146.234L18.0176 144.975L12.1348 144.975L12.1348 146.211L16.4941 146.211L16.4941 146.305L12.8203 153.43ZM22.5469 153.6C24.4922 153.6 25.8457 152.592 25.8457 151.145L25.8457 151.133C25.8457 150.049 25.0605 149.211 23.9297 148.982L23.9297 148.947C24.8965 148.689 25.541 147.98 25.541 147.072L25.541 147.061C25.541 145.76 24.2988 144.805 22.5469 144.805C20.7949 144.805 19.5527 145.76 19.5527 147.061L19.5527 147.072C19.5527 147.98 20.1973 148.689 21.1641 148.947L21.1641 148.982C20.0391 149.211 19.248 150.049 19.248 151.133L19.248 151.145C19.248 152.592 20.6016 153.6 22.5469 153.6ZM22.5469 148.467C21.6621 148.467 21.0469 147.951 21.0469 147.213L21.0469 147.201C21.0469 146.463 21.6621 145.947 22.5469 145.947C23.4316 145.947 24.0469 146.463 24.0469 147.201L24.0469 147.213C24.0469 147.951 23.4316 148.467 22.5469 148.467ZM22.5469 152.445C21.5332 152.445 20.8125 151.859 20.8125 151.045L20.8125 151.033C20.8125 150.213 21.5215 149.621 22.5469 149.621C23.5664 149.621 24.2813 150.213 24.2813 151.033L24.2813 151.045C24.2813 151.859 23.5605 152.445 22.5469 152.445ZM29.2031 149.064C30.4863 149.064 31.2598 148.285 31.2598 146.979L31.2598 146.973C31.2598 145.678 30.4746 144.887 29.2031 144.887C27.9316 144.887 27.1465 145.684 27.1465 146.973L27.1465 146.979C27.1465 148.285 27.9199 149.064 29.2031 149.064ZM29.1973 148.232C28.5645 148.232 28.207 147.77 28.207 146.979L28.207 146.973C28.207 146.193 28.5703 145.725 29.1973 145.725C29.8301 145.725 30.1934 146.193 30.1934 146.973L30.1934 146.979C30.1934 147.77 29.8359 148.232 29.1973 148.232ZM37.834 153.43L39.2578 153.43L40.9688 147.377L41.0566 147.377L42.7793 153.43L44.1973 153.43L46.4648 144.975L44.9004 144.975L43.4531 151.32L43.3711 151.32L41.6836 144.975L40.3418 144.975L38.6777 151.32L38.5898 151.32L37.1426 144.975L35.5664 144.975L37.834 153.43Z" fill="white"/>
<path id="compass--icon--sunset" d="M25.5 124.109C25.6094 124.109 25.7031 124.062 25.8281 123.953L28.2813 121.609C28.3906 121.5 28.4453 121.398 28.4453 121.266C28.4453 121.023 28.2656 120.852 28.0234 120.852C27.9063 120.852 27.7891 120.898 27.6953 120.992L26.5938 122.109L25.9141 122.859L25.9844 121.594L25.9844 118.523C25.9844 118.234 25.7578 118 25.5 118C25.2344 118 25.0078 118.234 25.0078 118.523L25.0078 121.594L25.0781 122.859L24.4531 122.156L23.2969 120.992C23.2031 120.898 23.0859 120.852 22.9688 120.852C22.7266 120.852 22.5469 121.023 22.5469 121.266C22.5469 121.398 22.6016 121.5 22.7109 121.609L25.1641 123.953C25.2891 124.062 25.3828 124.109 25.5 124.109ZM29.5313 126.297C29.7188 126.477 30.0313 126.477 30.2422 126.266L31.8516 124.656C32.0703 124.445 32.0625 124.141 31.8672 123.953C31.6953 123.766 31.3828 123.758 31.1641 123.969L29.5547 125.578C29.3438 125.789 29.3359 126.109 29.5313 126.297ZM20.7578 126.266C20.9688 126.477 21.2891 126.484 21.4688 126.297C21.6563 126.109 21.6563 125.789 21.4453 125.578L19.8359 123.969C19.6172 123.758 19.3125 123.766 19.125 123.953C18.9375 124.133 18.9297 124.445 19.1484 124.656L20.7578 126.266ZM29.6563 130.312C29.6563 128.039 27.7734 126.156 25.5 126.156C23.2266 126.156 21.3438 128.039 21.3438 130.312C21.3438 130.961 21.5078 131.578 21.7891 132.109L29.2031 132.109C29.4922 131.578 29.6563 130.961 29.6563 130.312ZM17.0078 130.609L19.2813 130.609C19.5859 130.609 19.8125 130.391 19.8047 130.125C19.7969 129.859 19.5781 129.641 19.2813 129.641L17.0078 129.641C16.7109 129.641 16.4844 129.859 16.4844 130.125C16.4844 130.391 16.7109 130.609 17.0078 130.609ZM31.7188 130.609L33.9922 130.609C34.2969 130.609 34.5156 130.391 34.5156 130.125C34.5156 129.859 34.2969 129.641 33.9922 129.641L31.7188 129.641C31.4219 129.641 31.1875 129.859 31.1953 130.125C31.1953 130.391 31.4219 130.609 31.7188 130.609ZM16.0078 133.875L34.9844 133.875C35.2656 133.875 35.5078 133.664 35.5078 133.398C35.5078 133.133 35.2656 132.922 34.9844 132.922L16.0078 132.922C15.7266 132.922 15.4844 133.133 15.4844 133.398C15.4844 133.664 15.7266 133.875 16.0078 133.875Z" fill="white"/>
</g>
</g>
</g>
<g id="compass--crosshairs">
<path id="compass--crosshair--horizontal" d="M112.25 166L220.25 166" stroke="white" stroke-width="0.5"/>
<path id="compass--crosshair--vertical" d="M166.25 220L166.25 112" stroke="white" stroke-width="0.5"/>
<path id="marker-line" d="M166 80L166 41" stroke="white" stroke-width="1.5"/>
</g>
</g>
</svg>
