<svg width="431" height="862" fill="none" xmlns="http://www.w3.org/2000/svg">
  <path fill-rule="evenodd" clip-rule="evenodd" d="M78.212 0h274.575c52.782 0 75.55 26.096 75.55 75.55v122.477h.34c.755.186 1.661.662 2.145 1.339.099.139.178.58.178.708V295.8c0 .136-.111.823-.179.99-.342.84-.905 1.123-1.759 1.552l-.003.002c-.121.061-.249.125-.382.194h-.34V786.45c0 47.79-24.432 75.55-75.55 75.55H78.212c-52.782 0-75.55-26.096-75.55-75.55V319.506h-.339a28.63 28.63 0 00-.371-.189l-.014-.007c-.853-.429-1.417-.713-1.76-1.553-.067-.166-.178-.854-.178-.99v-58.45c0-.128.079-.569.178-.708.484-.676 1.39-1.153 2.145-1.339h.34v-15.642h-.34c-.134-.07-.263-.135-.385-.196-.854-.429-1.417-.713-1.76-1.553-.067-.166-.178-.854-.178-.99v-58.45c0-.128.079-.569.178-.708.484-.676 1.39-1.153 2.145-1.339h.34v-27.624h-.34A2.326 2.326 0 010 147.439v-28.623a2.326 2.326 0 012.323-2.329h.34V75.55C2.662 26.096 25.43 0 78.212 0zM319.84 34.28v.333c0 9.25-7.058 20.968-23.298 20.968h-161.75c-16.239 0-23.297-11.718-23.297-20.968v-.333c0-4.278 0-8.653-7.655-8.653H71.556c-26.98 0-43.266 16.287-43.266 43.267v724.213c0 26.979 16.286 43.266 43.266 43.266h287.888c26.98 0 43.266-16.287 43.266-43.266V68.894c0-26.98-16.286-43.267-43.266-43.267h-31.951c-7.654 0-7.654 4.375-7.654 8.653z" fill="#F9FAFA"/>
</svg>
