<svg width="67" height="12" fill="none" xmlns="http://www.w3.org/2000/svg">
  <path opacity=".35" d="M45 .833h16.667c1.196 0 2.166.97 2.166 2.167v6c0 1.197-.97 2.167-2.166 2.167H45A2.167 2.167 0 0142.834 9V3c0-1.197.97-2.167 2.166-2.167z" stroke="#fff"/>
  <path opacity=".4" d="M65.334 4v4a2.17 2.17 0 000-4" fill="#fff"/>
  <path d="M44.334 3.667c0-.737.596-1.334 1.333-1.334H61c.736 0 1.334.597 1.334 1.334v4.666c0 .737-.598 1.334-1.334 1.334H45.667a1.333 1.333 0 01-1.334-1.334V3.667z" fill="#fff"/>
  <path fill-rule="evenodd" clip-rule="evenodd" d="M29.663 2.608a8.64 8.64 0 015.954 2.378c.12.118.314.117.433-.003l1.156-1.167a.322.322 0 00-.003-.456 10.897 10.897 0 00-15.08 0 .322.322 0 00-.003.456l1.156 1.167c.12.12.313.121.434.003a8.641 8.641 0 015.953-2.378zm0 3.796c1.218 0 2.392.452 3.295 1.27a.31.31 0 00.433-.006L34.545 6.5a.322.322 0 00-.004-.46 7.16 7.16 0 00-9.752 0 .322.322 0 00-.005.46l1.155 1.167a.31.31 0 00.433.005 4.907 4.907 0 013.291-1.27zm2.314 2.553a.314.314 0 01-.095.23l-1.997 2.017a.311.311 0 01-.443 0l-1.998-2.016a.314.314 0 01.01-.457 3.422 3.422 0 014.42 0c.063.058.1.14.103.226zM16 .667h-1a1 1 0 00-1 1v8.666a1 1 0 001 1h1a1 1 0 001-1V1.667a1 1 0 00-1-1zM10.333 3h1a1 1 0 011 1v6.333a1 1 0 01-1 1h-1a1 1 0 01-1-1V4a1 1 0 011-1zM6.667 5.333h-1a1 1 0 00-1 1v4a1 1 0 001 1h1a1 1 0 001-1v-4a1 1 0 00-1-1zM2 7.333H1a1 1 0 00-1 1v2a1 1 0 001 1h1a1 1 0 001-1v-2a1 1 0 00-1-1z" fill="#fff"/>
</svg>
