<svg width="13" height="12" viewBox="0 0 13 12" fill="none" xmlns="http://www.w3.org/2000/svg">
<path d="M12.0371 8.08984C12.0371 5.85156 10.5195 4.30469 7.84766 4.30469H3.91016L2.53906 4.36914L3.64648 3.41992L5.33984 1.76758C5.42773 1.67383 5.48047 1.5625 5.48047 1.41016C5.48047 1.10547 5.27539 0.894531 4.95898 0.894531C4.83594 0.894531 4.68359 0.958984 4.58398 1.05859L1.13867 4.43945C1.02148 4.55078 0.962891 4.68555 0.962891 4.83203C0.962891 4.97266 1.02148 5.10742 1.13867 5.21875L4.58398 8.59961C4.68359 8.70508 4.83594 8.76367 4.95898 8.76367C5.27539 8.76367 5.48047 8.55273 5.48047 8.24805C5.48047 8.0957 5.42773 7.98438 5.33984 7.89062L3.64648 6.24414L2.53906 5.29492L3.91016 5.35352H7.93555C9.93359 5.35352 10.9883 6.45508 10.9883 8.03125C10.9883 9.61328 9.93359 10.7852 7.93555 10.7852H6.58789C6.26562 10.7852 6.05469 11.0195 6.05469 11.3066C6.05469 11.5938 6.26562 11.8281 6.58789 11.8281H7.94141C10.5605 11.8281 12.0371 10.334 12.0371 8.08984Z" fill="white"/>
</svg>
