<svg width="13" height="12" viewBox="0 0 13 12" fill="none" xmlns="http://www.w3.org/2000/svg">
<path d="M1.45508 4.91992C1.76562 4.91992 1.98828 4.68555 1.98828 4.375V3.88281L1.87109 1.83789L3.41211 3.46094L5.2168 5.27734C5.31641 5.38281 5.44531 5.42969 5.58594 5.42969C5.91992 5.42969 6.16602 5.21289 6.16602 4.88477C6.16602 4.72656 6.11328 4.58594 6.00781 4.48047L4.19727 2.67578L2.57422 1.13477L4.625 1.25195H5.11133C5.42188 1.25195 5.66211 1.03516 5.66211 0.71875C5.66211 0.402344 5.42773 0.179688 5.11133 0.179688H1.85938C1.26172 0.179688 0.916016 0.525391 0.916016 1.12305V4.375C0.916016 4.67969 1.14453 4.91992 1.45508 4.91992ZM7.88281 11.3594H11.1348C11.7324 11.3594 12.084 11.0137 12.084 10.416V7.16406C12.084 6.85938 11.8555 6.61914 11.5391 6.61914C11.2344 6.61914 11.0059 6.85352 11.0059 7.16406V7.65625L11.1289 9.70117L9.58203 8.07812L7.7832 6.26172C7.68359 6.15625 7.54883 6.10938 7.4082 6.10938C7.08008 6.10938 6.82812 6.32617 6.82812 6.6543C6.82812 6.8125 6.88672 6.95312 6.99219 7.05859L8.79688 8.86328L10.4258 10.4043L8.375 10.2871H7.88281C7.57227 10.2871 7.33203 10.5039 7.33203 10.8203C7.33203 11.1367 7.57227 11.3594 7.88281 11.3594Z" fill="white"/>
</svg>
