<svg width="12" height="14" viewBox="0 0 12 14" fill="none" xmlns="http://www.w3.org/2000/svg">
<path d="M6 9.36328C6.25195 9.36328 6.46289 9.15234 6.46289 8.90625V2.88867L6.42773 2.00977L6.82617 2.42578L7.71094 3.375C7.79297 3.46875 7.91602 3.51562 8.02734 3.51562C8.27344 3.51562 8.45508 3.33984 8.45508 3.09961C8.45508 2.97656 8.4082 2.88281 8.32031 2.79492L6.33984 0.884766C6.22266 0.767578 6.11719 0.726562 6 0.726562C5.88281 0.726562 5.77734 0.767578 5.66016 0.884766L3.67969 2.79492C3.5918 2.88281 3.53906 2.97656 3.53906 3.09961C3.53906 3.33984 3.7207 3.51562 3.96094 3.51562C4.07812 3.51562 4.20117 3.46875 4.2832 3.375L5.17383 2.42578L5.57227 2.00977L5.53125 2.88867V8.90625C5.53125 9.15234 5.74805 9.36328 6 9.36328ZM2.63672 13.9512H9.35742C10.582 13.9512 11.1973 13.3418 11.1973 12.1348V6.28711C11.1973 5.08008 10.582 4.4707 9.35742 4.4707H7.72266V5.41406H9.33984C9.91992 5.41406 10.2539 5.73047 10.2539 6.33984V12.082C10.2539 12.6914 9.91992 13.0078 9.33984 13.0078H2.64844C2.0625 13.0078 1.74023 12.6914 1.74023 12.082V6.33984C1.74023 5.73047 2.0625 5.41406 2.64844 5.41406H4.27148V4.4707H2.63672C1.41211 4.4707 0.796875 5.08008 0.796875 6.28711V12.1348C0.796875 13.3418 1.41211 13.9512 2.63672 13.9512Z" fill="white"/>
</svg>
