<svg width="22" height="18" viewBox="0 0 22 18" fill="currentColor" xmlns="http://www.w3.org/2000/svg">
  <path d="M10.6099 6.61531C10.7472 6.61531 10.8529 6.56248 11.0114 6.42509L13.6005 3.97342C13.7273 3.85718 13.7907 3.74093 13.7907 3.57184C13.7907 3.28653 13.5794 3.08573 13.2835 3.08573C13.1355 3.08573 12.9981 3.13858 12.8924 3.25482L11.7829 4.36441L11.1171 5.11471L11.2016 3.82547L11.2016 0.644619C11.2016 0.285334 10.9269 -4.72537e-08 10.6099 -4.58828e-08C10.2928 -4.45117e-08 10.0181 0.285334 10.0181 0.644619L10.0181 3.82547L10.1026 5.11471L9.50026 4.43838L8.32726 3.25482C8.22158 3.13858 8.08419 3.08573 7.93625 3.08573C7.64037 3.08573 7.42901 3.28653 7.42901 3.57184C7.42901 3.74093 7.49243 3.85718 7.61923 3.97342L10.2083 6.42509C10.3668 6.56248 10.4725 6.61531 10.6099 6.61531ZM14.8792 8.90847C15.1116 9.13039 15.4921 9.13039 15.7563 8.87677L17.3309 7.29163C17.6056 7.02744 17.595 6.65757 17.3625 6.42509C17.1406 6.19261 16.7602 6.19261 16.496 6.4568L14.9214 8.03137C14.6572 8.29556 14.6467 8.68655 14.8792 8.90847ZM5.46345 8.87677C5.72764 9.13039 6.11863 9.14098 6.34055 8.90847C6.56247 8.67599 6.56247 8.29556 6.29828 8.03137L4.72371 6.4568C4.45952 6.19261 4.08965 6.20317 3.85717 6.42509C3.62469 6.64701 3.61411 7.02744 3.88888 7.29163L5.46345 8.87677ZM15.0482 13.1672C15.0482 10.7367 13.0404 8.71826 10.6099 8.71826C8.17931 8.71826 6.17146 10.7367 6.17146 13.1672C6.17146 13.8118 6.31941 14.4248 6.5836 14.9743L14.6361 14.9743C14.9003 14.4248 15.0482 13.8118 15.0482 13.1672ZM1.70139 13.5582L3.93115 13.5582C4.30101 13.5582 4.58633 13.294 4.57576 12.9664C4.5652 12.6388 4.30101 12.3747 3.93115 12.3747L1.70139 12.3747C1.33152 12.3747 1.05675 12.6388 1.05675 12.9664C1.05675 13.294 1.33152 13.5582 1.70139 13.5582ZM17.2886 13.5582L19.5183 13.5582C19.8988 13.5582 20.163 13.294 20.163 12.9664C20.163 12.6388 19.8988 12.3747 19.5183 12.3747L17.2886 12.3747C16.9187 12.3747 16.6334 12.6388 16.6439 12.9664C16.6545 13.294 16.9187 13.5582 17.2886 13.5582ZM0.634054 17.0455L20.5857 17.0455C20.9344 17.0455 21.2196 16.7813 21.2196 16.4643C21.2196 16.1473 20.9344 15.8831 20.5857 15.8831L0.634054 15.8831C0.285329 15.8831 6.98295e-08 16.1473 7.12005e-08 16.4643C7.25715e-08 16.7813 0.285329 17.0455 0.634054 17.0455Z" fill="currentColor"/>
</svg>
